# xmcd
#
# Track frame offsets:
#	150
#	8467
#	46567
#	65356
#	81579
#	98484
#	117142
#	128774
#	154194
#	178219
#	195590
#	220191
#	234649
#	251821
#	270186
#	292320
#	311231
#	336650
#
# Disc length: 4694 seconds
#
# Revision: 1
# Processed by: cddbd v1.5.2PL0 Copyright (c) Steve Scherf et al.
# Submitted via: audiograbber 1.83.01
#
DISCID=03125412
DTITLE=Birtles, Shorrock, Goble - Full Circle
DYEAR=2003
DGENRE=Pop
TTITLE0=Full Circle
TTITLE1=It`s A Long Way There
TTITLE2=Man On Your Mind
TTITLE3=Curiosity Killed The Cat
TTITLE4=Everyday Of My Live
TTITLE5=Happy Anniversary
TTITLE6=Prelude In A Mirror
TTITLE7=Mistress Of Mine
TTITLE8=Lady
TTITLE9=Take It Easy On Me
TTITLE10=The Night Owls
TTITLE11=The Other Guy
TTITLE12=Seine City
TTITLE13=Home On Monday
TTITLE14=Reminiscing
TTITLE15=Help Is On Its Way
TTITLE16=Cool Change
TTITLE17=Lonesome Loser
EXTD=
EXTT0=
EXTT1=
EXTT2=
EXTT3=
EXTT4=
EXTT5=
EXTT6=
EXTT7=
EXTT8=
EXTT9=
EXTT10=
EXTT11=
EXTT12=
EXTT13=
EXTT14=
EXTT15=
EXTT16=
EXTT17=
PLAYORDER=
